<?xml version="1.0" encoding="UTF-8" standalone="no"?>
<svg
   xmlns:dc="http://purl.org/dc/elements/1.1/"
   xmlns:cc="http://creativecommons.org/ns#"
   xmlns:rdf="http://www.w3.org/1999/02/22-rdf-syntax-ns#"
   xmlns:svg="http://www.w3.org/2000/svg"
   xmlns="http://www.w3.org/2000/svg"
   xmlns:xlink="http://www.w3.org/1999/xlink"
   xmlns:sodipodi="http://sodipodi.sourceforge.net/DTD/sodipodi-0.dtd"
   xmlns:inkscape="http://www.inkscape.org/namespaces/inkscape"
   inkscape:version="1.0 (4035a4fb49, 2020-05-01)"
   height="185"
   width="185"
   sodipodi:docname="favicon.svg"
   version="1.1"
   id="Layer_1"
   x="0px"
   y="0px"
   viewBox="0 0 185 184.99999"
   xml:space="preserve"><sodipodi:namedview
   units="px"
   inkscape:current-layer="Layer_1"
   inkscape:window-maximized="0"
   inkscape:window-y="0"
   inkscape:window-x="0"
   inkscape:cy="5.5196601"
   inkscape:cx="-93.072027"
   inkscape:zoom="1.6323364"
   showgrid="false"
   id="namedview1124"
   inkscape:window-height="864"
   inkscape:window-width="1743"
   inkscape:pageshadow="2"
   inkscape:pageopacity="0"
   guidetolerance="10"
   gridtolerance="10"
   objecttolerance="10"
   borderopacity="1"
   bordercolor="#666666"
   pagecolor="#ffffff" /><metadata
   id="metadata101"><rdf:RDF><cc:Work
       rdf:about=""><dc:format>image/svg+xml</dc:format><dc:type
         rdf:resource="http://purl.org/dc/dcmitype/StillImage" /><dc:title></dc:title></cc:Work></rdf:RDF></metadata><defs
   id="defs99">
	

		<defs
   id="defs47">
			
				<rect
   id="SVGID_1_"
   x="449.89999"
   y="-134.39999"
   transform="matrix(0.8697,-0.4936,0.4936,0.8697,125.9405,256.1953)"
   width="196.60001"
   height="48" />
		</defs>
		<clipPath
   id="SVGID_2_">
			<use
   height="100%"
   width="100%"
   y="0"
   x="0"
   xlink:href="#SVGID_1_"
   style="overflow:visible"
   id="use49" />
		</clipPath>
		
	
			<defs
   id="defs53">
				
					<rect
   height="48"
   width="196.60001"
   transform="matrix(0.8697,-0.4936,0.4936,0.8697,125.9405,256.1953)"
   y="-134.39999"
   x="449.89999"
   id="SVGID_3_" />
			</defs>
			<clipPath
   id="SVGID_4_">
				<use
   id="use55"
   style="overflow:visible"
   xlink:href="#SVGID_3_"
   x="0"
   y="0"
   width="100%"
   height="100%" />
			</clipPath>
			
			
			
			
			
		
	

		<defs
   id="defs74">
			
				<rect
   id="SVGID_5_"
   x="492"
   y="-82.300003"
   transform="matrix(0.8714,-0.4905,0.4905,0.8714,95.5832,270.9703)"
   width="145.39999"
   height="71" />
		</defs>
		<clipPath
   id="SVGID_6_">
			<use
   height="100%"
   width="100%"
   y="0"
   x="0"
   xlink:href="#SVGID_5_"
   style="overflow:visible"
   id="use76" />
		</clipPath>
		
	
			<defs
   id="defs80">
				
					<rect
   height="71"
   width="145.39999"
   transform="matrix(0.8714,-0.4905,0.4905,0.8714,95.5832,270.9703)"
   y="-82.300003"
   x="492"
   id="SVGID_7_" />
			</defs>
			<clipPath
   id="SVGID_8_">
				<use
   id="use82"
   style="overflow:visible"
   xlink:href="#SVGID_7_"
   x="0"
   y="0"
   width="100%"
   height="100%" />
			</clipPath>
			
			
			
		</defs>
<style
   type="text/css"
   id="style2">
	.st0{fill:#FFFFFF;}
	.st1{fill:#0862AD;}
	.st2{fill:#F48120;}
	.st3{fill:#73BD45;}
	.st4{fill:#EA1A5B;}
	.st5{clip-path:url(#SVGID_2_);}
	.st6{clip-path:url(#SVGID_4_);fill:#F48120;}
	.st7{clip-path:url(#SVGID_4_);fill:#EA1A5B;}
	.st8{clip-path:url(#SVGID_4_);fill:#73BD45;}
	.st9{clip-path:url(#SVGID_6_);}
	.st10{clip-path:url(#SVGID_8_);fill:#73BD45;}
	.st11{clip-path:url(#SVGID_8_);fill:#EA1A5B;}
	.st12{clip-path:url(#SVGID_8_);fill:#0862AD;}
</style>





















<path
   transform="matrix(3.2586375,1.7181651,-1.7181651,3.2586375,-1594.6576,-500.00298)"
   id="path66"
   clip-path="url(#SVGID_4_)"
   d="m 455.8,-81.8 5.5,-3 c 1,-0.6 2.4,-0.2 3,0.8 l 8.1,11.8 c 0.8,1.3 2.5,1.7 3.7,0.8 l 6.7,-5.1 c 1,-0.8 1.3,-2.1 0.7,-3.2 L 476,-93 c -0.8,-1.4 -0.1,-3.2 1.5,-3.7 l 6.9,-3.3 c 1.1,-0.3 1.4,-0.5 2.8,1.1 4.9,5.6 18,26.3 20.4,32 0.6,1 0.4,2.8 -0.8,3.5 l -7.4,4.5 c -1.2,0.7 -2.7,0.3 -3.4,-0.8 l -3.5,-5.3 c -0.8,-1.2 -2.4,-1.5 -3.6,-0.7 l -6.8,4.8 c -1,0.7 -1.2,2.1 -0.7,3.2 l 4.3,6.7 c 0.5,1 0.1,1.8 -0.8,2.5 l -5.8,5.1 c -1.2,1.1 -2.9,0.7 -3.8,-0.6 -6.2,-8.6 -16.8,-24.1 -20.5,-33 -1.2,-2.5 -0.6,-3.9 1,-4.8"
   class="st7" />

</svg>
