<?xml version="1.0" encoding="UTF-8" standalone="no"?>
<!DOCTYPE svg PUBLIC "-//W3C//DTD SVG 1.1//EN" "http://www.w3.org/Graphics/SVG/1.1/DTD/svg11.dtd">
<svg width="100%" height="100%" viewBox="0 0 255 255" version="1.1" xmlns="http://www.w3.org/2000/svg" xmlns:xlink="http://www.w3.org/1999/xlink" xml:space="preserve" xmlns:serif="http://www.serif.com/" style="fill-rule:evenodd;clip-rule:evenodd;stroke-linejoin:round;stroke-miterlimit:2;">
    <g transform="matrix(3.19905,0,0,3.19905,-631.071,-5.2512)">
        <path d="M265.67,13.37C249.87,5.47 234.27,4.67 224.57,7.47C206.67,12.67 201.07,34.67 217.67,45.47C218.67,46.17 218.07,47.47 216.77,49.67C215.17,52.37 212.37,57.77 207.27,61.67C204.17,63.97 202.17,64.97 204.77,67.87C204.77,67.87 210.37,73.97 214.57,75.67C219.57,77.77 220.87,77.47 224.57,74.07C226.87,71.97 231.57,66.17 237.17,56.97C240.07,52.17 243.97,52.07 243.47,59.97C243.47,59.97 242.67,67.57 242.47,69.17C241.87,73.67 242.37,75.27 246.57,75.27C246.57,75.27 255.57,74.77 258.67,74.37C263.07,73.77 262.87,73.07 263.97,69.77C270.17,51.87 270.67,21.17 270.67,21.17C270.77,17 269.47,15.27 265.67,13.37ZM247.17,38.17L236.37,40L229.37,31.5L233.17,21.2L243.97,19.4L250.97,27.9L247.17,38.17Z" style="fill:rgb(8,98,173);fill-rule:nonzero;"/>
    </g>
</svg>
