<?xml version="1.0" encoding="UTF-8" standalone="no"?>
<!DOCTYPE svg PUBLIC "-//W3C//DTD SVG 1.1//EN" "http://www.w3.org/Graphics/SVG/1.1/DTD/svg11.dtd">
<svg width="100%" height="100%" viewBox="0 0 255 255" version="1.1" xmlns="http://www.w3.org/2000/svg" xmlns:xlink="http://www.w3.org/1999/xlink" xml:space="preserve" xmlns:serif="http://www.serif.com/" style="fill-rule:evenodd;clip-rule:evenodd;stroke-linejoin:round;stroke-miterlimit:2;">
    <g transform="matrix(1.22221,0,0,1.22221,-11.054,-41.3517)">
        <g transform="matrix(1,0,0,1,8.29728,54.7957)">
            <path d="M82.27,32.07C80.27,32.47 78.27,30.47 73.27,29.77C66.495,28.705 59.662,31.496 55.57,37C52.73,40.833 51.783,45.757 53,50.37C55.9,61.67 67.4,64.87 74.6,62.77C77.9,61.87 79,60.07 80.2,60.77C81.4,61.47 80,64.27 80.9,65.07C82.7,66.47 88.7,66.87 89.6,65.07C91.9,60.57 93.6,33.27 92.9,28.17C92.7,26.87 87.4,25.77 85.4,26.27C84.813,26.388 84.366,26.875 84.3,27.47C84.27,27.57 84.17,31.67 82.27,32.07ZM71.07,55C68.77,54.3 67.07,50.8 67.87,47C68.67,43.2 71.47,40.5 74.07,41.3C76.37,42 78.07,45.7 77.27,49.5C76.47,53.6 73.67,55.8 71.07,55" style="fill:rgb(244,129,32);fill-rule:nonzero;"/>
        </g>
        <g transform="matrix(1,0,0,1,8.29728,54.7957)">
            <path d="M179.87,26.87C175.57,29.57 173.47,32.87 173.47,37.47C173.37,43.57 181.77,47.67 183.97,48.57C186.57,49.67 186.87,50.97 186.47,51.97C185.77,53.47 184.27,53.67 182.47,53.37C179.27,52.67 176.67,49.87 174.17,48.47C172.77,47.67 170.57,50.47 170.27,52.87C170.112,53.846 170.544,54.828 171.37,55.37C175.927,59.897 182.049,62.51 188.47,62.67C190.77,62.77 196.77,62.27 200.57,58.37C202.428,56.572 203.656,54.222 204.07,51.67C204.338,49.228 203.697,46.77 202.27,44.77C200.97,42.77 198.47,40.67 194.17,38.97C187.17,36.07 189.37,33.17 191.07,32.67C192.47,32.17 194.97,32.57 199.07,35.07C201.27,36.37 204.27,31.17 202.47,29.77C193.07,23.07 184.57,23.97 179.87,26.87" style="fill:rgb(244,129,32);fill-rule:nonzero;"/>
        </g>
        <g transform="matrix(1,0,0,1,8.29728,54.7957)">
            <path d="M132.77,23.17C129.67,31.87 129.07,61.47 136.47,66.97C138.47,68.47 145.37,67.07 146.77,64.97C148.87,61.87 142.47,49.67 144.77,48.07C147.47,46.17 156.27,62.07 160.77,64.17C163.17,65.27 168.87,59.87 167.97,58.07C166.07,53.97 155.47,47.57 155.27,43.77C155.07,41.17 165.67,34.57 165.27,29.57C165.07,27.27 160.27,23.77 157.97,23.97C153.07,24.47 148.47,37.27 145.47,37.27C140.67,37.27 145.87,23.27 141.67,22.27C139.47,21.87 133.37,21.17 132.77,23.17Z" style="fill:rgb(234,26,91);fill-rule:nonzero;"/>
        </g>
        <g transform="matrix(1,0,0,1,8.29728,54.7957)">
            <path d="M126.67,24.77C128.27,26.07 128.17,33.17 126.87,34.77C124.07,37.97 110.07,33.87 109.67,44.77C109.27,57.77 123.97,50.57 125.57,54.17C126.07,55.47 126.27,64.17 124.97,64.77C118.87,67.57 96.57,67.77 96.57,46.17C96.47,24.27 122.27,21.07 126.67,24.77Z" style="fill:rgb(115,189,69);fill-rule:nonzero;"/>
        </g>
        <g transform="matrix(1,0,0,1,8.29728,54.7957)">
            <path d="M9.83,26.52L16.03,26.62C17.233,26.631 18.219,27.617 18.23,28.82L19.43,43C19.432,44.387 20.573,45.527 21.96,45.527C22.084,45.527 22.207,45.518 22.33,45.5L30.63,44.4C31.87,44.216 32.805,43.153 32.83,41.9L32.83,26.62C32.831,25.26 33.95,24.141 35.31,24.141C35.519,24.141 35.727,24.168 35.93,24.22L43.53,24.72C44.63,25.02 45.03,25.02 45.43,27.02C47.03,34.32 48.13,58.82 47.33,64.82C47.304,66.182 46.28,67.334 44.93,67.52L36.23,67.72C34.865,67.754 33.705,66.683 33.63,65.32L33.23,59.02C33.158,57.724 32.072,56.696 30.774,56.696C30.659,56.696 30.544,56.704 30.43,56.72L22.13,57.52C20.922,57.69 19.994,58.701 19.93,59.92L20.33,67.82C20.23,68.92 19.53,69.42 18.43,69.62L10.93,71.22C10.781,71.247 10.631,71.26 10.48,71.26C9.085,71.26 7.935,70.115 7.93,68.72C6.83,58.12 5.23,39.52 6.43,29.92C6.73,27.52 7.93,26.52 9.83,26.52Z" style="fill:rgb(234,26,91);fill-rule:nonzero;"/>
        </g>
    </g>
    <g transform="matrix(1.22221,0,0,1.22221,-210.288,39.1855)">
        <g transform="matrix(1,0,0,1,8.29728,54.7957)">
            <path d="M281.77,28.47C277.814,34.527 275.568,41.542 275.27,48.77C274.857,53.752 277.353,58.549 281.67,61.07C286.37,63.87 292.57,63.57 298.07,60.47C309.97,53.67 311.37,36.47 310.97,28.77C310.971,28.738 310.972,28.706 310.972,28.673C310.972,27.132 309.703,25.863 308.162,25.863C308.098,25.863 308.034,25.866 307.97,25.87C306.667,25.86 305.365,25.926 304.07,26.07C302.46,26.12 301.163,27.458 301.163,29.069C301.163,29.136 301.165,29.203 301.17,29.27L301.17,29.77C301.07,36.97 300.57,43.37 297.37,47.27C295.27,49.87 292.67,50.87 291.07,50.27C289.47,49.67 288.67,47.77 288.87,45.77C289.474,41.769 290.867,37.927 292.97,34.47L293.57,33.37C294.37,31.67 293.97,29.97 292.57,29.27C291.77,28.87 290.07,28.27 288.57,27.67L286.77,26.97C285.27,26.47 283.37,26.17 281.77,28.47" style="fill:rgb(115,189,69);fill-rule:nonzero;"/>
        </g>
        <g transform="matrix(1,0,0,1,8.29728,54.7957)">
            <path d="M323.57,23.47C318.37,26.17 315.77,29.77 315.17,34.97C314.47,41.97 324.27,46.77 326.57,48.07C329.37,49.57 329.47,51.27 328.77,52.27C327.57,53.87 324.47,53.37 322.07,52.47C319.47,51.47 318.17,50.27 316.07,47.87C314.87,46.47 311.07,50.47 310.47,53.27C310.17,54.57 310.67,55.17 311.47,56.27C313.57,59.17 320.17,64.37 329.77,65.07C332.47,65.27 339.37,65.37 343.97,61.27C346.263,59.184 347.897,56.472 348.67,53.47C349.354,50.694 348.846,47.755 347.27,45.37C344.67,41.47 340.27,38.87 335.47,36.67C328.37,33.47 329.77,31.57 331.37,30.67C332.97,29.77 337.87,30.47 341.87,34.07C343.87,35.87 347.97,30.17 346.27,28.27C339.87,21.27 329.17,20.57 323.57,23.47" style="fill:rgb(234,26,91);fill-rule:nonzero;"/>
        </g>
    </g>
    <g transform="matrix(1.22221,0,0,1.22221,-203.321,108.61)">
        <path d="M265.67,13.37C249.87,5.47 234.27,4.67 224.57,7.47C206.67,12.67 201.07,34.67 217.67,45.47C218.67,46.17 218.07,47.47 216.77,49.67C215.17,52.37 212.37,57.77 207.27,61.67C204.17,63.97 202.17,64.97 204.77,67.87C204.77,67.87 210.37,73.97 214.57,75.67C219.57,77.77 220.87,77.47 224.57,74.07C226.87,71.97 231.57,66.17 237.17,56.97C240.07,52.17 243.97,52.07 243.47,59.97C243.47,59.97 242.67,67.57 242.47,69.17C241.87,73.67 242.37,75.27 246.57,75.27C246.57,75.27 255.57,74.77 258.67,74.37C263.07,73.77 262.87,73.07 263.97,69.77C270.17,51.87 270.67,21.17 270.67,21.17C270.77,17 269.47,15.27 265.67,13.37ZM247.17,38.17L236.37,40L229.37,31.5L233.17,21.2L243.97,19.4L250.97,27.9L247.17,38.17Z" style="fill:rgb(8,98,173);fill-rule:nonzero;"/>
    </g>
</svg>
